{
  "accessors": [
    {
      "bufferView": 2,
      "componentType": 5126,
      "count": 278,
      "max": [
        0.20843859016895294,
        0.20843859016895294,
        0.27187442779541016
      ],
      "min": [
        -0.20843859016895294,
        -0.20843859016895294,
        0.0
      ],
      "type": "VEC3"
    },
    {
      "bufferView": 2,
      "byteOffset": 3336,
      "componentType": 5126,
      "count": 278,
      "max": [
        0.9833826422691345,
        0.983382523059845,
        1.0
      ],
      "min": [
        -0.983382523059845,
        -0.983382523059845,
        -1.0
      ],
      "type": "VEC3"
    },
    {
      "bufferView": 3,
      "componentType": 5126,
      "count": 278,
      "max": [
        0.9895997643470764,
        0.989599883556366,
        0.3538191318511963,
        1.0
      ],
      "min": [
        -0.9895997643470764,
        -0.9895996451377869,
        -0.4546223282814026,
        1.0
      ],
      "type": "VEC4"
    },
    {
      "bufferView": 1,
      "componentType": 5126,
      "count": 278,
      "max": [
        0.9786807298660278,
        0.9844695925712585
      ],
      "min": [
        0.03992161154747009,
        0.005210846662521362
      ],
      "type": "VEC2"
    },
    {
      "bufferView": 1,
      "byteOffset": 2224,
      "componentType": 5126,
      "count": 278,
      "max": [
        0.9786807298660278,
        0.9844695925712585
      ],
      "min": [
        0.03992161154747009,
        0.005210846662521362
      ],
      "type": "VEC2"
    },
    {
      "bufferView": 1,
      "byteOffset": 4448,
      "componentType": 5126,
      "count": 278,
      "max": [
        0.9786807298660278,
        0.9844695925712585
      ],
      "min": [
        0.03992161154747009,
        0.005210846662521362
      ],
      "type": "VEC2"
    },
    {
      "bufferView": 0,
      "componentType": 5125,
      "count": 816,
      "type": "SCALAR"
    },
    {
      "bufferView": 2,
      "byteOffset": 6672,
      "componentType": 5126,
      "count": 237,
      "max": [
        0.38210123777389526,
        0.3899127244949341,
        0.279800146818161
      ],
      "min": [
        -0.396817684173584,
        -0.40539994835853577,
        -0.05176335573196411
      ],
      "type": "VEC3"
    },
    {
      "bufferView": 2,
      "byteOffset": 9516,
      "componentType": 5126,
      "count": 237,
      "max": [
        0.9611399173736572,
        0.9447116255760193,
        0.996680498123169
      ],
      "min": [
        -0.9814695119857788,
        -0.9655757546424866,
        0.13629859685897827
      ],
      "type": "VEC3"
    },
    {
      "bufferView": 3,
      "byteOffset": 4448,
      "componentType": 5126,
      "count": 237,
      "max": [
        0.9999288320541382,
        0.9828779697418213,
        0.7712031602859497,
        1.0
      ],
      "min": [
        -0.9376795291900635,
        -0.9974813461303711,
        -0.9676240682601929,
        -1.0
      ],
      "type": "VEC4"
    },
    {
      "bufferView": 1,
      "byteOffset": 6672,
      "componentType": 5126,
      "count": 237,
      "max": [
        0.9860711693763733,
        0.9593820571899414
      ],
      "min": [
        0.013928773812949657,
        0.013928773812949657
      ],
      "type": "VEC2"
    },
    {
      "bufferView": 0,
      "byteOffset": 3264,
      "componentType": 5125,
      "count": 780,
      "type": "SCALAR"
    },
    {
      "bufferView": 2,
      "byteOffset": 12360,
      "componentType": 5126,
      "count": 118,
      "max": [
        0.06351440399885178,
        0.1452648937702179,
        0.2549978792667389
      ],
      "min": [
        -0.07714218646287918,
        -0.06512835621833801,
        0.02252170443534851
      ],
      "type": "VEC3"
    },
    {
      "bufferView": 2,
      "byteOffset": 13776,
      "componentType": 5126,
      "count": 118,
      "max": [
        0.5465158224105835,
        0.6217719316482544,
        0.9854854941368103
      ],
      "min": [
        -0.7515710592269897,
        -0.9754279851913452,
        0.2203189730644226
      ],
      "type": "VEC3"
    },
    {
      "bufferView": 3,
      "byteOffset": 8240,
      "componentType": 5126,
      "count": 118,
      "max": [
        1.0,
        0.7705037593841553,
        2.6906109269475564e-06,
        1.0
      ],
      "min": [
        -1.0,
        -0.7705013751983643,
        -4.247042852512095e-06,
        1.0
      ],
      "type": "VEC4"
    },
    {
      "bufferView": 1,
      "byteOffset": 8568,
      "componentType": 5126,
      "count": 118,
      "max": [
        0.9844197034835815,
        0.9850439429283142
      ],
      "min": [
        0.7022309303283691,
        0.4386045038700104
      ],
      "type": "VEC2"
    },
    {
      "bufferView": 0,
      "byteOffset": 6384,
      "componentType": 5125,
      "count": 216,
      "type": "SCALAR"
    }
  ],
  "asset": {
    "extras": {
      "author": "Agustín Hönnun (https://sketchfab.com/Agustin_Honnun)",
      "license": "CC-BY-4.0 (http://creativecommons.org/licenses/by/4.0/)",
      "source": "https://sketchfab.com/3d-models/stylized-flower-pot-2f0507e4c4b342e286e3dfde052508b6",
      "title": "Stylized Flower Pot"
    },
    "generator": "Sketchfab-12.67.0",
    "version": "2.0"
  },
  "bufferViews": [
    {
      "buffer": 0,
      "byteLength": 7248,
      "name": "floatBufferViews",
      "target": 34963
    },
    {
      "buffer": 0,
      "byteLength": 9512,
      "byteOffset": 7248,
      "byteStride": 8,
      "name": "floatBufferViews",
      "target": 34962
    },
    {
      "buffer": 0,
      "byteLength": 15192,
      "byteOffset": 16760,
      "byteStride": 12,
      "name": "floatBufferViews",
      "target": 34962
    },
    {
      "buffer": 0,
      "byteLength": 10128,
      "byteOffset": 31952,
      "byteStride": 16,
      "name": "floatBufferViews",
      "target": 34962
    }
  ],
  "buffers": [
    {
      "byteLength": 42080,
      "uri": "scene.bin"
    }
  ],
  "images": [
    {
      "uri": "textures/Plantpot_MAT_baseColor.png"
    },
    {
      "uri": "textures/Plantpot_MAT_metallicRoughness.png"
    },
    {
      "uri": "textures/Plantpot_MAT_normal.png"
    },
    {
      "uri": "textures/Foliage_MAT_baseColor.png"
    },
    {
      "uri": "textures/Foliage_MAT_metallicRoughness.png"
    },
    {
      "uri": "textures/Foliage_MAT_normal.png"
    }
  ],
  "materials": [
    {
      "name": "Plantpot_MAT",
      "normalTexture": {
        "index": 2
      },
      "pbrMetallicRoughness": {
        "baseColorTexture": {
          "index": 0
        },
        "metallicRoughnessTexture": {
          "index": 1
        }
      }
    },
    {
      "alphaMode": "BLEND",
      "doubleSided": true,
      "name": "Foliage_MAT",
      "normalTexture": {
        "index": 5
      },
      "pbrMetallicRoughness": {
        "baseColorTexture": {
          "index": 3
        },
        "metallicRoughnessTexture": {
          "index": 4
        }
      }
    }
  ],
  "meshes": [
    {
      "name": "FlowerPot_Plantpot_MAT_0",
      "primitives": [
        {
          "attributes": {
            "NORMAL": 1,
            "POSITION": 0,
            "TANGENT": 2,
            "TEXCOORD_0": 3,
            "TEXCOORD_1": 4,
            "TEXCOORD_2": 5
          },
          "indices": 6,
          "material": 0,
          "mode": 4
        }
      ]
    },
    {
      "name": "Plants_Foliage_MAT_0",
      "primitives": [
        {
          "attributes": {
            "NORMAL": 8,
            "POSITION": 7,
            "TANGENT": 9,
            "TEXCOORD_0": 10
          },
          "indices": 11,
          "material": 1,
          "mode": 4
        }
      ]
    },
    {
      "name": "Flowers_Foliage_MAT_0",
      "primitives": [
        {
          "attributes": {
            "NORMAL": 13,
            "POSITION": 12,
            "TANGENT": 14,
            "TEXCOORD_0": 15
          },
          "indices": 16,
          "material": 1,
          "mode": 4
        }
      ]
    }
  ],
  "nodes": [
    {
      "children": [
        1
      ],
      "matrix": [
        0.010750280693173409,
        0.0,
        0.0,
        0.0,
        0.0,
        2.3870418293488812e-18,
        -0.010750280693173409,
        0.0,
        0.0,
        0.010750280693173409,
        2.3870418293488812e-18,
        0.0,
        0.0,
        0.0,
        0.0,
        1.0
      ],
      "name": "Sketchfab_model"
    },
    {
      "children": [
        2
      ],
      "matrix": [
        1.0,
        0.0,
        0.0,
        0.0,
        0.0,
        0.0,
        1.0,
        0.0,
        0.0,
        -1.0,
        0.0,
        0.0,
        0.0,
        0.0,
        0.0,
        1.0
      ],
      "name": "b9f3e21a4ef9447f96443e06ffce729b.fbx"
    },
    {
      "children": [
        3,
        5,
        7
      ],
      "name": "RootNode"
    },
    {
      "children": [
        4
      ],
      "matrix": [
        100.0,
        0.0,
        0.0,
        0.0,
        0.0,
        -1.629206793918314e-05,
        -99.99999999999868,
        0.0,
        0.0,
        99.99999999999868,
        -1.629206793918314e-05,
        0.0,
        0.0,
        0.0,
        0.0,
        1.0
      ],
      "name": "FlowerPot"
    },
    {
      "mesh": 0,
      "name": "FlowerPot_Plantpot_MAT_0"
    },
    {
      "children": [
        6
      ],
      "matrix": [
        100.0,
        0.0,
        0.0,
        0.0,
        0.0,
        -1.629206793918314e-05,
        -99.99999999999868,
        0.0,
        0.0,
        99.99999999999868,
        -1.629206793918314e-05,
        0.0,
        7.352836064455914e-07,
        20.844972610473633,
        2.5222593080798106e-07,
        1.0
      ],
      "name": "Plants"
    },
    {
      "mesh": 1,
      "name": "Plants_Foliage_MAT_0"
    },
    {
      "children": [
        8
      ],
      "matrix": [
        100.0,
        0.0,
        0.0,
        0.0,
        0.0,
        -1.629206793918314e-05,
        -99.99999999999868,
        0.0,
        0.0,
        99.99999999999868,
        -1.629206793918314e-05,
        0.0,
        7.352836064455914e-07,
        20.844972610473633,
        2.5222593080798106e-07,
        1.0
      ],
      "name": "Flowers"
    },
    {
      "mesh": 2,
      "name": "Flowers_Foliage_MAT_0"
    }
  ],
  "samplers": [
    {
      "magFilter": 9729,
      "minFilter": 9987,
      "wrapS": 10497,
      "wrapT": 10497
    }
  ],
  "scene": 0,
  "scenes": [
    {
      "name": "Sketchfab_Scene",
      "nodes": [
        0
      ]
    }
  ],
  "textures": [
    {
      "sampler": 0,
      "source": 0
    },
    {
      "sampler": 0,
      "source": 1
    },
    {
      "sampler": 0,
      "source": 2
    },
    {
      "sampler": 0,
      "source": 3
    },
    {
      "sampler": 0,
      "source": 4
    },
    {
      "sampler": 0,
      "source": 5
    }
  ]
}
